<svg version="1.1" xmlns="http://www.w3.org/2000/svg" xmlns:xlink="http://www.w3.org/1999/xlink" width="170.5" height="187" viewBox="0,0,170.5,187"><g transform="translate(-34.75,-25.25)"><g data-paper-data="{&quot;isPaintingLayer&quot;:true}" fill-rule="nonzero" stroke-linejoin="miter" stroke-miterlimit="10" stroke-dasharray="" stroke-dashoffset="0" style="mix-blend-mode: normal"><g><path d="M80.5,211v-166h16.30357v166z" fill="#d42e2e" stroke="#000000" stroke-width="0.5" stroke-linecap="butt"/><path d="M97.5,211v-175h16.30357v175z" fill="#d42e2e" stroke="#000000" stroke-width="0.5" stroke-linecap="butt"/><path d="M114.5,211v-179h16.30357v179z" fill="#d42e2e" stroke="#000000" stroke-width="0.5" stroke-linecap="butt"/><path d="M131.5,211v-172h16.30357v172z" fill="#d42e2e" stroke="#000000" stroke-width="0.5" stroke-linecap="butt"/><path d="M148.5,211v-161h16.30357v161z" fill="#d42e2e" stroke="#000000" stroke-width="0.5" stroke-linecap="butt"/><path d="M165.5,211v-151h16.30357v151z" fill="#d42e2e" stroke="#000000" stroke-width="0.5" stroke-linecap="butt"/><path d="M64.5,210v-153h16.30357v153z" fill="#d42e2e" stroke="#000000" stroke-width="0.5" stroke-linecap="butt"/><path d="M180.76746,110.86056l-117.94985,0.58164l-0.16237,-16.30317l117.94985,-0.58164z" data-paper-data="{&quot;index&quot;:null}" fill="#d42e2e" stroke="#000000" stroke-width="0.5" stroke-linecap="butt"/><path d="M180.64833,93.86098l-117.94985,0.58164l-0.16236,-16.30317l117.94985,-0.58164z" data-paper-data="{&quot;index&quot;:null}" fill="#d42e2e" stroke="#000000" stroke-width="0.5" stroke-linecap="butt"/><path d="M179.5292,76.86139l-116.95122,0.58164l-0.16099,-16.30317l116.95123,-0.58164z" data-paper-data="{&quot;index&quot;:null}" fill="#d42e2e" stroke="#000000" stroke-width="0.5" stroke-linecap="butt"/><path d="M180.88659,127.86014l-117.94985,0.58164l-0.16237,-16.30317l117.94985,-0.58164z" data-paper-data="{&quot;index&quot;:null}" fill="#d42e2e" stroke="#000000" stroke-width="0.5" stroke-linecap="butt"/><path d="M105.5,211v-56h34v56z" fill="#9f2323" stroke="#ffffff" stroke-width="2.5" stroke-linecap="butt"/><g fill="#000000" stroke="#000000" stroke-width="7.5" stroke-linecap="round"><path d="M120.5,30l-82,48"/><path d="M201.5,77l-82,-48" data-paper-data="{&quot;index&quot;:null}"/></g><g stroke="#ffffff" stroke-width="2.5"><path d="M83.5,102.89473v-24.89473h21.5v24.89473z" fill="#ff5656" stroke-linecap="butt"/><path d="M102.5,79.07692l-15,21.92308" fill="none" stroke-linecap="round"/><path d="M85.5,80l18,21" fill="none" stroke-linecap="round"/></g><g stroke="#ffffff" stroke-width="2.5"><path d="M140.5,103.89474v-24.89473h21.5v24.89473z" fill="#ff5656" stroke-linecap="butt"/><path d="M159.5,80.07693l-15,21.92307" fill="none" stroke-linecap="round"/><path d="M142.5,81l18,21" fill="none" stroke-linecap="round"/></g></g></g></g></svg>